<?xml version="1.0" standalone="no"?>
<!DOCTYPE svg PUBLIC "-//W3C//DTD SVG 20010904//EN"
 "http://www.w3.org/TR/2001/REC-SVG-20010904/DTD/svg10.dtd">
<svg version="1.0" xmlns="http://www.w3.org/2000/svg"
 width="4138.000000pt" height="3802.000000pt" viewBox="0 0 4138.000000 3802.000000"
 preserveAspectRatio="xMidYMid meet">

<g transform="translate(0.000000,3802.000000) scale(0.100000,-0.100000)"
fill="#000000" stroke="none">
<path d="M19964 36928 c-1401 -2114 -1845 -2787 -1846 -2795 0 -4 81 -42 181
-84 357 -153 637 -302 797 -425 121 -92 233 -218 282 -315 62 -123 76 -190 76
-344 -1 -154 -21 -263 -90 -475 -86 -268 -270 -704 -456 -1077 -581 -1173
-1262 -1915 -1977 -2154 -167 -55 -290 -78 -461 -85 -304 -13 -559 46 -890
207 -380 185 -652 380 -935 670 -392 402 -642 873 -759 1425 -73 350 -76 786
-6 1171 39 218 121 494 209 704 22 52 36 97 33 100 -19 16 -3052 2110 -3063
2114 -16 6 -215 -152 -213 -169 2 -12 1414 -3488 3469 -8536 181 -443 331
-808 335 -813 7 -8 479 153 1255 428 1553 550 2103 732 2770 920 868 244 1235
307 1870 321 641 15 1078 -38 1754 -211 789 -204 1408 -404 3176 -1030 782
-277 1248 -436 1255 -428 4 5 150 359 325 788 174 429 598 1471 942 2315 1373
3373 2536 6236 2537 6246 1 14 -195 175 -210 172 -5 -2 -699 -480 -1541 -1062
l-1532 -1060 16 -35 c116 -270 208 -591 255 -896 26 -169 35 -542 19 -721 -55
-586 -275 -1118 -653 -1576 -93 -113 -322 -339 -438 -432 -156 -125 -404 -282
-598 -379 -218 -109 -375 -167 -551 -204 -110 -23 -150 -27 -316 -27 -224 -1
-321 14 -523 80 -722 236 -1404 976 -1990 2157 -256 516 -464 1040 -524 1321
-28 131 -30 331 -5 426 57 218 225 406 523 586 163 99 434 229 766 367 l38 16
-396 598 c-1772 2674 -2177 3283 -2184 3283 -4 0 -331 -487 -726 -1082z m1576
-7573 c0 -5 -190 -200 -422 -432 l-423 -423 -432 432 -433 433 427 427 428
428 427 -427 c236 -236 428 -432 428 -438z"/>
<path d="M1076 37243 c-3 -131 -9 -341 -12 -468 -4 -152 -3 -262 5 -324 7 -52
135 -603 285 -1225 151 -622 412 -1702 581 -2401 882 -3649 1426 -5820 1995
-7955 221 -830 230 -865 271 -1120 26 -161 37 -498 20 -637 -58 -466 -252
-836 -707 -1350 -503 -567 -974 -1178 -1539 -1998 -88 -126 -436 -644 -775
-1150 -339 -506 -671 -998 -736 -1093 -135 -195 -233 -363 -293 -500 -246
-559 -221 -1094 78 -1691 79 -156 124 -230 403 -651 583 -882 968 -1497 2023
-3230 667 -1095 1052 -1721 1304 -2120 420 -663 1106 -1719 1112 -1712 4 5
1072 3771 1147 4044 2 10 7 18 11 18 4 0 1038 -1169 2297 -2599 1259 -1429
2292 -2596 2295 -2592 3 3 13 92 22 196 59 716 159 1845 165 1869 l7 28 720
-479 c970 -645 1183 -779 1630 -1028 398 -221 599 -348 853 -539 339 -256 633
-551 839 -842 292 -414 472 -872 547 -1394 31 -213 39 -396 32 -725 -9 -415 4
-535 84 -776 141 -426 443 -785 1024 -1218 1313 -978 2494 -1486 3651 -1571
745 -54 1584 118 2423 497 554 250 1177 626 1778 1074 581 433 883 792 1024
1218 80 241 93 361 84 776 -9 420 8 638 72 953 202 989 858 1789 1999 2434 83
47 240 136 350 198 316 179 645 388 1450 923 l750 499 7 -28 c6 -25 159 -1757
175 -1987 3 -43 9 -79 12 -81 3 -2 1036 1166 2295 2595 1260 1430 2293 2599
2297 2599 4 0 9 -8 11 -17 64 -236 1143 -4040 1147 -4045 8 -10 897 1366 1316
2037 291 467 370 596 1155 1885 1003 1648 1383 2254 2008 3200 229 348 289
446 367 605 103 208 163 373 201 551 95 449 20 886 -227 1325 -33 60 -126 205
-207 321 -80 117 -418 620 -752 1118 -333 498 -689 1024 -790 1170 -558 804
-997 1373 -1494 1933 -376 424 -562 733 -656 1088 -95 359 -78 786 51 1304 17
66 81 311 144 545 600 2244 1119 4310 2066 8230 176 729 434 1798 574 2375
140 578 259 1091 266 1140 12 89 11 158 -8 808 -3 125 -8 227 -11 227 -18 0
-605 -313 -1482 -790 -1725 -939 -2318 -1233 -3245 -1610 -643 -261 -1140
-501 -1645 -795 -1538 -895 -2734 -2097 -3592 -3610 -287 -506 -462 -879 -743
-1585 -85 -212 -200 -489 -257 -615 -132 -297 -444 -921 -743 -1490 -482 -915
-801 -1570 -947 -1940 -19 -48 -19 -49 0 -30 143 150 797 917 1356 1590 1059
1273 1328 1593 1710 2029 820 938 1539 1669 2256 2297 1366 1195 2782 2031
4340 2561 187 63 601 191 605 186 3 -3 -2635 -9671 -2640 -9676 -2 -3 -975
235 -2974 728 -448 110 -815 199 -817 197 -4 -4 -104 -226 -104 -231 0 -12
575 -420 1240 -881 1521 -1054 2061 -1497 2847 -2333 646 -687 1249 -1411
2248 -2697 230 -297 571 -736 758 -975 186 -239 375 -489 419 -555 147 -221
258 -477 310 -716 19 -89 22 -133 22 -304 0 -168 -4 -216 -22 -301 -48 -224
-151 -459 -291 -670 -98 -146 -149 -210 -338 -421 -315 -352 -521 -615 -1058
-1353 -370 -508 -542 -740 -549 -740 -2 0 -210 394 -462 875 -252 481 -461
874 -465 873 -6 -3 -2026 -1840 -3777 -3436 -570 -519 -574 -522 -596 -505
-12 10 -258 241 -546 513 -288 272 -528 494 -534 492 -6 -2 -884 -502 -1950
-1110 -1067 -609 -1945 -1108 -1951 -1110 -7 -2 -15 7 -18 20 -2 13 -19 83
-36 157 -270 1140 -101 2471 458 3617 266 545 571 982 956 1370 241 243 412
379 785 626 129 86 298 203 375 261 1034 777 1677 1719 1884 2762 57 287 66
389 66 745 -1 321 -9 428 -47 649 l-11 64 -221 -6 c-1174 -33 -2342 -455
-3351 -1212 -1059 -795 -1835 -1892 -2185 -3090 -60 -206 -102 -392 -184 -825
-590 -3093 -966 -5849 -1186 -8695 -30 -389 -53 -579 -90 -763 -91 -439 -278
-846 -537 -1167 -98 -121 -313 -333 -443 -436 -331 -262 -720 -488 -1374 -796
-110 -51 -200 -92 -202 -91 -1 2 126 329 282 728 993 2530 1258 3208 1262
3228 l4 22 -2172 0 -2172 0 4 -22 c4 -20 269 -698 1262 -3228 156 -399 283
-726 282 -728 -4 -3 -374 171 -576 273 -672 337 -1107 650 -1422 1025 -219
260 -403 616 -503 971 -74 263 -106 478 -145 989 -218 2823 -598 5606 -1186
8690 -136 714 -221 1015 -416 1465 -751 1742 -2396 3106 -4253 3529 -377 86
-801 136 -1152 136 l-121 0 -11 -67 c-49 -290 -64 -713 -37 -993 92 -963 523
-1830 1291 -2595 297 -297 626 -561 1039 -832 351 -232 524 -370 761 -608 516
-517 926 -1176 1203 -1935 365 -999 445 -2114 221 -3061 -17 -74 -34 -144 -36
-157 -3 -13 -11 -22 -18 -20 -6 2 -884 501 -1951 1110 -1067 609 -1944 1108
-1950 1110 -6 2 -246 -220 -534 -492 -288 -272 -534 -503 -546 -513 -22 -17
-26 -14 -761 655 -2083 1898 -3606 3283 -3612 3286 -3 1 -210 -388 -460 -865
-250 -478 -457 -872 -461 -876 -9 -11 -118 133 -515 678 -576 792 -797 1075
-1110 1420 -156 173 -231 266 -327 410 -142 213 -249 462 -295 690 -28 138
-25 443 6 585 51 239 163 496 312 720 46 69 165 229 264 355 100 127 360 462
580 745 1306 1687 1865 2363 2578 3122 788 839 1317 1272 2847 2333 675 468
1240 869 1240 881 0 5 -100 227 -104 231 -2 2 -396 -94 -877 -212 -2013 -497
-2911 -716 -2914 -713 -6 5 -2643 9673 -2640 9676 5 5 429 -126 640 -199 764
-261 1525 -613 2230 -1031 1434 -852 2738 -1997 4296 -3773 391 -446 591 -683
1844 -2190 474 -570 1126 -1332 1257 -1470 19 -19 19 -18 0 30 -147 373 -457
1009 -957 1960 -523 995 -730 1432 -990 2085 -221 556 -283 696 -477 1084
-758 1516 -1794 2720 -3153 3662 -699 485 -1419 865 -2376 1254 -878 358
-1535 683 -3054 1510 -935 509 -1580 854 -1636 875 -14 5 -17 -20 -23 -232z
m10195 -18407 c24 -18 742 -585 1594 -1260 1238 -979 1556 -1235 1580 -1272
60 -95 28 -222 -73 -281 -44 -26 -54 -28 -142 -26 -301 8 -708 75 -1020 170
-47 14 -147 49 -222 79 -1027 399 -1655 1234 -1833 2441 -19 132 -19 130 10
158 32 33 54 31 106 -9z m18699 8 c19 -19 16 -77 -15 -260 -263 -1553 -1317
-2470 -2970 -2583 -173 -12 -212 -4 -270 54 -69 68 -83 172 -34 252 12 19 637
521 1572 1261 854 676 1574 1245 1601 1266 52 39 83 42 116 10z"/>
</g>
</svg>
